<?xml version="1.0" encoding="utf-8"?>
<!-- Generator: Adobe Illustrator 25.4.1, SVG Export Plug-In . SVG Version: 6.00 Build 0)  -->
<svg version="1.1" id="Calque_1" xmlns="http://www.w3.org/2000/svg" xmlns:xlink="http://www.w3.org/1999/xlink" x="0px" y="0px"
	 viewBox="0 0 1000 1000" style="enable-background:new 0 0 1000 1000;" xml:space="preserve">
<style type="text/css">
	.st0{fill:#F42172;}
	.st1{fill:#0066CC;}
</style>
<g>
	<g>
		<g>
			<path class="st0" d="M636.1,367.6c-2.2-7.6-4.3-14.1-7.6-20.5c-2.2-4.3-4.3-7.6-5.4-10.8c-5.4-9.7-13-19.5-20.5-27
				c-7.6-7.6-17.3-15.1-27-20.5s-20.5-10.8-32.4-13c-11.9-3.2-23.8-4.3-35.7-4.3s-23.8,1.1-35.7,4.3c-11.9,3.2-21.6,7.6-32.4,13
				c-9.7,5.4-19.5,13-27,20.5c-5.4,5.4-9.7,10.8-15.1,17.3c-3.2,4.3-3.2,9.7-1.1,14.1c3.2,6.5,5.4,13,7.6,20.5
				c0,1.1,1.1,2.2,1.1,4.3c3.2,13,5.4,25.9,5.4,38.9s-2.2,27-5.4,38.9c0,1.1-1.1,3.2-1.1,4.3l0,0l0,0c-2.2,6.5-4.3,13-7.6,19.5
				c-2.2,4.3-2.2,9.7,1.1,14.1c4.3,6.5,8.6,11.9,15.1,17.3c7.6,7.6,17.3,15.1,27,21.6c9.7,5.4,20.5,10.8,32.4,14.1
				c11.9,3.3,23.8,4.3,35.7,4.3s23.8-1.1,35.7-4.3c11.9-3.2,21.6-7.6,32.4-14.1c9.7-5.4,19.5-13,27-21.6c7.6-7.6,15.1-17.3,20.5-27
				c2.2-4.3,4.3-7.6,5.4-11.9c3.2-6.5,5.4-13,7.6-20.5c3.2-11.9,4.3-23.8,4.3-35.7C641.5,391.5,639.4,379.6,636.1,367.6z
				 M583.2,435.8c-4.3,9.7-10.8,18.4-17.3,25.9c-7.6,7.6-16.2,13-25.9,17.3s-20.5,6.5-32.4,6.5s-22.7-2.2-32.4-6.5
				s-18.4-10.8-25.9-17.3c-7.6-7.6-13-16.2-17.3-25.9c-4.3-9.7-6.5-20.5-6.5-31.3c0-11.9,2.2-21.6,6.5-32.4
				c4.3-9.7,10.8-19.5,17.3-25.9c7.6-7.6,16.2-13,25.9-17.3c9.7-4.3,20.5-6.5,32.4-6.5s21.6,2.2,32.4,6.5
				c9.7,4.3,19.5,9.7,25.9,17.3c7.6,7.6,13,16.2,17.3,25.9s6.5,20.5,6.5,32.4C589.6,415.1,587.5,425,583.2,435.8z"/>
		</g>
		<g>
			<path class="st0" d="M516.1,375.1v57.3c0,2.2-2.2,3.2-3.2,3.2l-11.9-1.1c-1.1,0-3.2-1.1-3.2-3.2V374c0-2.2,2.2-3.2,3.2-3.2
				l11.9,1.1C515.1,373.1,516.1,374.1,516.1,375.1z"/>
			<path class="st0" d="M477.2,394.6h59.5c2.2,0,3.2,1.1,3.2,3.2v11.9c0,2.2-1.1,3.2-3.2,3.2h-59.5c-2.2,0-3.2-1.1-3.2-3.2v-11.9
				C474,395.8,475.1,394.6,477.2,394.6z"/>
		</g>
		<path class="st1" d="M389.7,367.6c0-1.1-1.1-2.2-1.1-3.2c-2.2-6.5-4.3-11.9-6.5-17.3c-1.1-2.2-2.2-4.3-4.3-7.6
			c-1.1-1.1-1.1-2.2-2.2-4.3c0-1.1-1.1-2.2-2.2-3.2c-5.4-8.6-11.9-17.3-19.5-23.8c-7.6-7.6-17.3-15.1-27-20.5s-20.5-10.8-32.4-13
			c-11.9-3.2-23.8-4.3-35.7-4.3s-23.8,1.1-35.7,4.3c-11.9,3.2-21.6,7.6-32.4,13c-9.7,5.4-19.5,13-27,20.5
			c-7.6,7.6-15.1,17.3-21.6,27c-4.3,6.5-7.6,13-9.7,20.5c-1.1,4.3,1.1,7.6,5.4,7.6H180c3.2,0,6.5-2.2,8.6-4.3
			c3.2-5.4,7.6-9.7,11.9-15.1c7.6-7.6,16.2-13,25.9-17.3c9.7-4.3,20.5-6.5,32.4-6.5s21.6,2.2,32.4,6.5c9.7,4.3,19.5,10.8,25.9,17.3
			c5.4,5.4,10.8,11.9,14.1,19.5c1.1,2.2,2.2,4.3,3.2,7.6c4.3,9.7,6.5,20.5,6.5,32.4s-2.2,21.6-6.5,31.3c-1.1,3.2-2.2,5.4-4.3,7.6
			c-4.3,6.5-8.6,13-14.1,18.4c-7.6,7.6-16.2,13-25.9,17.3c-9.7,4.3-20.5,6.5-32.4,6.5s-22.7-2.2-32.4-6.5s-18.4-10.8-25.9-17.3
			c-4.3-4.3-7.6-8.6-10.8-14.1c-2.2-3.2-4.3-4.3-7.6-4.3h-27h-8.6c-8.6,0-15.1,6.5-15.1,15.1v8.6v65.9c0,21.6,17.3,38.9,38.9,38.9
			h6.5c5.4,0,9.7-4.3,9.7-9.7v-40c0-2.2,2.2-4.3,4.3-3.2c9.7,5.4,20.5,10.8,32.4,14.1c11.9,3.2,23.8,4.3,35.7,4.3
			c11.9,0,23.8-1.1,35.7-4.3c11.9-3.2,22.7-7.6,32.4-14.1c9.7-5.4,19.5-13,27-21.6c7.6-7.6,14.1-15.1,19.5-24.9
			c1.1-1.1,1.1-2.2,2.2-3.2c1.1-1.1,1.1-2.2,2.2-4.3c1.1-2.2,2.2-4.3,4.3-7.6c2.2-5.4,4.3-10.8,6.5-16.2c0-1.1,1.1-3.2,1.1-4.3
			c3.2-11.9,4.3-23.8,4.3-35.7C394,391.5,392.9,379.6,389.7,367.6z"/>
		<path class="st1" d="M865.3,477.9C865.3,477.9,865.3,476.9,865.3,477.9c3.2-5.4,1.1-8.6,0-10.8l0,0l0,0L835,448.8
			c-5.4-3.2-11.9-2.2-15.1,3.2c-2.2,3.2-5.4,6.5-8.6,9.7c-7.6,7.6-16.2,13-25.9,17.3s-20.5,6.5-32.4,6.5s-22.7-2.2-32.4-6.5
			s-18.4-10.8-25.9-17.3c-7.6-7.6-13-16.2-17.3-25.9c-4.3-9.7-6.5-20.5-6.5-31.3c0-11.9,2.2-21.6,6.5-32.4
			c4.3-9.7,10.8-19.5,17.3-25.9c7.6-7.6,16.2-13,25.9-17.3c9.7-4.3,20.5-6.5,32.4-6.5s21.6,2.2,32.4,6.5
			c10.8,4.3,19.5,9.7,25.9,17.3c3.2,3.2,6.5,6.5,8.6,9.7c3.2,4.3,10.8,6.5,15.1,3.2l27-17.3l0,0c5.4-3.2,4.3-8.6,3.2-10.8l0,0
			c-5.4-7.6-10.8-15.1-17.3-21.6c-7.6-7.6-17.3-15.1-27-20.5s-20.5-10.8-32.4-13c-11.9-3.2-23.8-4.3-35.7-4.3s-23.8,1.1-35.7,4.3
			c-11.9,3.2-21.6,7.6-32.4,13c-9.7,5.4-19.5,13-27,20.5c-5.4,5.4-10.8,11.9-16.2,18.4c-2.2,3.2-3.2,7.6-1.1,11.9
			c4.3,7.6,7.6,16.2,9.7,25.9c3.2,13,5.4,25.9,5.4,38.9s-2.2,27-5.4,38.9c-2.2,8.6-5.4,17.3-9.7,25.9c-2.2,4.3-1.1,7.6,1.1,11.9
			c4.3,6.5,9.7,13,15.1,18.4c7.6,7.6,17.3,15.1,27,21.6c9.7,5.4,20.5,10.8,32.4,14.1c11.9,3.3,23.8,4.3,35.7,4.3s23.8-1.1,35.7-4.3
			c11.9-3.2,21.6-7.6,32.4-14.1c9.7-5.4,19.5-13,27-21.6C854.5,492,858.8,485.5,865.3,477.9L865.3,477.9z"/>
	</g>
	<g>
		<path class="st0" d="M232.5,660.6c0,24.8-18.7,40.2-48.5,40.2h-13c-3.3,0-6,2.7-6,6v16.6c0,3.3-2.7,6-6,6h-18.9c-3.3,0-6-2.7-6-6
			v-97.2c0-3.3,2.7-6,6-6H184C213.8,620.2,232.5,635.8,232.5,660.6z M201.3,660.6c0-10.1-6.4-16.1-19.2-16.1H171c-3.3,0-6,2.7-6,6
			v20c0,3.3,2.7,6,6,6h11.2C194.9,676.5,201.3,670.6,201.3,660.6z"/>
		<path class="st0" d="M351.4,626.2v97.2c0,3.3-2.7,6-6,6h-18.9c-3.3,0-6-2.7-6-6v-30.6c0-3.3-2.7-6-6-6h-30.2c-3.3,0-6,2.7-6,6
			v30.6c0,3.3-2.7,6-6,6h-18.9c-3.3,0-6-2.7-6-6v-97.2c0-3.3,2.7-6,6-6h18.9c3.3,0,6,2.7,6,6v29.1c0,3.3,2.7,6,6,6h30.2
			c3.3,0,6-2.7,6-6v-29.1c0-3.3,2.7-6,6-6h18.9C348.7,620.2,351.4,623,351.4,626.2z"/>
		<path class="st0" d="M442.4,708.2h-38.1c-2.4,0-4.6,1.5-5.5,3.7l-5.6,13.7c-0.9,2.3-3.1,3.7-5.5,3.7h-18.3c-4.3,0-7.2-4.4-5.5-8.4
			l42.9-97.2c1-2.2,3.1-3.6,5.5-3.6h22.6c2.4,0,4.5,1.4,5.5,3.6l43.1,97.2c1.8,4-1.1,8.4-5.5,8.4h-19c-2.4,0-4.6-1.5-5.5-3.7
			l-5.6-13.7C447,709.8,444.8,708.2,442.4,708.2z M434.1,677.2l-5.2-12.9c-2-5-9.1-5-11.1,0l-5.2,12.9c-1.6,3.9,1.3,8.2,5.5,8.2
			h10.4C432.8,685.4,435.7,681.2,434.1,677.2z"/>
		<path class="st0" d="M540.5,700.4h-7.7c-3.3,0-6,2.7-6,6v17.1c0,3.3-2.7,6-6,6h-18.9c-3.3,0-6-2.7-6-6v-97.2c0-3.3,2.7-6,6-6h43.9
			c29.8,0,48.5,15.4,48.5,40.4c0,13.8-5.8,24.5-16,31.4c-2.8,1.9-3.6,5.6-1.7,8.4l13.5,19.6c2.7,4-0.1,9.4-4.9,9.4h-18.6
			c-2,0-3.8-1-4.9-2.6l-16.3-23.8C544.3,701.4,542.4,700.4,540.5,700.4z M543.9,644.6h-11.2c-3.3,0-6,2.7-6,6v20c0,3.3,2.7,6,6,6
			h11.2c12.8,0,19.2-5.9,19.2-15.9C563.1,650.5,556.7,644.6,543.9,644.6z"/>
		<path class="st0" d="M709.9,723.5l-0.2-30.4c0-6.1-8-8.2-11.1-3l-15.3,25.7c-1.1,1.8-3,2.9-5.1,2.9h-7c-2.1,0-4-1.1-5.1-2.9
			L651,691.2c-3.2-5.1-11.1-2.9-11.1,3.1v29.1c0,3.3-2.7,6-6,6h-16.6c-3.3,0-6-2.7-6-6v-97.2c0-3.3,2.7-6,6-6h16.1
			c2.1,0,4,1.1,5.1,2.9l31.5,51.7c2.3,3.8,7.9,3.8,10.2-0.1l30.6-51.5c1.1-1.8,3-2.9,5.1-2.9H732c3.3,0,6,2.7,6,6l0.3,97.2
			c0,3.3-2.7,6-6,6h-16.4C712.6,729.4,709.9,726.8,709.9,723.5z"/>
		<path class="st0" d="M829.3,708.2h-38.1c-2.4,0-4.6,1.5-5.5,3.7l-5.6,13.7c-0.9,2.3-3.1,3.7-5.5,3.7h-18.3c-4.3,0-7.2-4.4-5.5-8.4
			l42.9-97.2c1-2.2,3.1-3.6,5.5-3.6h22.6c2.4,0,4.5,1.4,5.5,3.6l43.1,97.2c1.8,4-1.1,8.4-5.5,8.4H846c-2.4,0-4.6-1.5-5.5-3.7
			l-5.6-13.7C833.9,709.8,831.7,708.2,829.3,708.2z M821,677.2l-5.2-12.9c-2-5-9.1-5-11.1,0l-5.2,12.9c-1.6,3.9,1.3,8.2,5.5,8.2
			h10.4C819.7,685.4,822.6,681.2,821,677.2z"/>
	</g>
</g>
</svg>
