<?xml version="1.0" encoding="utf-8"?>
<!-- Svg Vector Icons : http://www.onlinewebfonts.com/icon -->
<!DOCTYPE svg PUBLIC "-//W3C//DTD SVG 1.1//EN" "http://www.w3.org/Graphics/SVG/1.1/DTD/svg11.dtd">
<svg version="1.1" xmlns="http://www.w3.org/2000/svg" xmlns:xlink="http://www.w3.org/1999/xlink" x="0px" y="0px" viewBox="0 0 256 256" enable-background="new 0 0 256 256" xml:space="preserve">
<metadata> Svg Vector Icons : http://www.onlinewebfonts.com/icon </metadata>
<g><g><path fill="#000000" d="M107.4,131.7H94.6l-2.7,8.5h-8.3L97,100.6h8.1l13.3,39.6h-8.3L107.4,131.7z M96.5,125.4h9l-4.4-13.9H101L96.5,125.4z"/><path fill="#000000" d="M130.2,125.9v14.4h-7.9v-39.6h15.1c4.6,0,8.1,1.2,10.7,3.5c2.6,2.3,3.9,5.4,3.9,9.2c0,3.8-1.3,6.8-3.9,9.1c-2.6,2.3-6.2,3.4-10.7,3.4H130.2L130.2,125.9z M130.2,119.7h7.2c2.2,0,3.9-0.6,5-1.8c1.1-1.2,1.7-2.7,1.7-4.6c0-1.9-0.6-3.5-1.7-4.7s-2.8-1.9-5-1.9h-7.2V119.7z"/><path fill="#000000" d="M166.2,140.2h-7.9v-39.6h7.9V140.2z"/><path fill="#000000" d="M246,133c0,23.2-18.9,42-42,42H161c-2.6,0-4.7-2.1-4.7-4.7c0-2.6,2.1-4.7,4.7-4.7H204c18,0,32.6-14.6,32.6-32.6c0-17.9-14.5-32.5-32.4-32.6c-0.1,0-0.2,0-0.3,0c-1.4,0-2.7-0.5-3.6-1.5c-0.9-1-1.3-2.4-1.2-3.8c0.3-2.5,0.5-4.6,0.5-6.5c0-14.1-5.5-27.3-15.4-37.2c-9.9-9.9-23.1-15.4-37.2-15.4c-11,0-21.5,3.3-30.3,9.7c-8.7,6.2-15.2,14.7-19,24.7c-0.6,1.5-1.9,2.6-3.4,3c-1.6,0.3-3.2-0.1-4.4-1.3c-4.5-4.5-10.4-6.9-16.7-6.9c-13,0-23.6,10.6-23.6,23.6c0,0.1,0,0.2,0,0.4c0,0.2,0,0.4,0,0.7c0.1,2.2-1.3,4.1-3.5,4.7c-7.5,2.1-14.2,6.6-19,12.8c-4.9,6.4-7.5,14-7.5,22.1c0,19.9,16.2,36.2,36.2,36.2H95c2.6,0,4.7,2.1,4.7,4.7S97.6,175,95,175H55.7C30.5,175,10,154.5,10,129.3c0-10.2,3.3-19.8,9.5-27.9c5.3-6.8,12.5-12,20.5-15c1.2-17.2,15.5-30.8,33-30.8c6.6,0,12.8,1.9,18.2,5.4c4.6-9.2,11.3-17.1,19.8-23.2c10.5-7.5,22.9-11.4,35.8-11.4c16.6,0,32.2,6.5,43.9,18.2s18.2,27.3,18.2,43.9c0,0.9,0,1.7-0.1,2.6C229.7,93.7,246,111.5,246,133L246,133z M154.9,188.4c-0.9,0.9-2.1,1.4-3.3,1.4c-1.2,0-2.4-0.5-3.3-1.4l-15.5-15.5h0l0,50.8c0,2.7-2.1,5.7-4.6,5.7c-2.7,0-4.9-3-4.9-5.7v-50.9c0,0,0,0,0,0l-15.5,15.5c-1.9,1.9-4.8,1.9-6.7,0c-1.9-1.9-1.9-4.8,0-6.7l23.6-23.6c1.9-1.9,4.8-1.9,6.7,0l23.6,23.6C156.8,183.5,156.8,186.5,154.9,188.4L154.9,188.4z"/></g></g>
</svg>